<?xml version="1.0" standalone="no"?>
<!DOCTYPE svg PUBLIC "-//W3C//DTD SVG 20010904//EN"
 "http://www.w3.org/TR/2001/REC-SVG-20010904/DTD/svg10.dtd">
<svg version="1.0" xmlns="http://www.w3.org/2000/svg"
 width="450.000000pt" height="450.000000pt" viewBox="0 0 450.000000 450.000000"
 preserveAspectRatio="xMidYMid meet">
<metadata>
Created by potrace 1.16, written by Peter Selinger 2001-2019
</metadata>
<g transform="translate(0.000000,450.000000) scale(0.100000,-0.100000)"
fill="#000000" stroke="none">
<path d="M400 3750 l0 -350 350 0 350 0 0 350 0 350 -350 0 -350 0 0 -350z
m600 0 l0 -250 -250 0 -250 0 0 250 0 250 250 0 250 0 0 -250z"/>
<path d="M600 3750 l0 -150 150 0 150 0 0 150 0 150 -150 0 -150 0 0 -150z"/>
<path d="M1400 4000 l0 -100 50 0 50 0 0 100 0 100 -50 0 -50 0 0 -100z"/>
<path d="M1600 4050 l0 -50 50 0 50 0 0 -50 0 -50 -50 0 -50 0 0 -100 0 -100
50 0 50 0 0 50 0 50 50 0 50 0 0 -50 0 -50 50 0 50 0 0 -50 0 -50 100 0 100 0
0 -50 0 -50 -50 0 -50 0 0 -150 0 -150 -200 0 -200 0 0 100 0 100 50 0 50 0 0
100 0 100 -100 0 -100 0 0 -50 0 -50 -50 0 -50 0 0 100 0 100 50 0 50 0 0 50
0 50 -150 0 -150 0 0 -50 0 -50 50 0 50 0 0 -50 0 -50 -50 0 -50 0 0 -100 0
-100 50 0 50 0 0 -50 0 -50 -150 0 -150 0 0 -50 0 -50 100 0 100 0 0 -50 0
-50 -100 0 -100 0 0 -50 0 -50 100 0 100 0 0 50 0 50 50 0 50 0 0 50 0 50 50
0 50 0 0 -50 0 -50 50 0 50 0 0 50 0 50 50 0 50 0 0 -50 0 -50 50 0 50 0 0
-50 0 -50 -50 0 -50 0 0 -100 0 -100 50 0 50 0 0 50 0 50 50 0 50 0 0 -50 0
-50 50 0 50 0 0 -50 0 -50 100 0 100 0 0 -50 0 -50 -50 0 -50 0 0 -50 0 -50
50 0 50 0 0 -100 0 -100 150 0 150 0 0 -100 0 -100 -50 0 -50 0 0 50 0 50 -50
0 -50 0 0 -50 0 -50 -50 0 -50 0 0 50 0 50 -50 0 -50 0 0 100 0 100 -200 0
-200 0 0 100 0 100 50 0 50 0 0 50 0 50 -100 0 -100 0 0 150 0 150 -50 0 -50
0 0 -100 0 -100 -50 0 -50 0 0 50 0 50 -50 0 -50 0 0 -50 0 -50 -50 0 -50 0 0
50 0 50 -50 0 -50 0 0 -50 0 -50 50 0 50 0 0 -50 0 -50 -100 0 -100 0 0 -50 0
-50 -50 0 -50 0 0 150 0 150 -150 0 -150 0 0 50 0 50 50 0 50 0 0 100 0 100
50 0 50 0 0 -50 0 -50 50 0 50 0 0 -50 0 -50 50 0 50 0 0 50 0 50 -50 0 -50 0
0 50 0 50 50 0 50 0 0 50 0 50 -250 0 -250 0 0 -100 0 -100 50 0 50 0 0 -50 0
-50 -50 0 -50 0 0 -50 0 -50 50 0 50 0 0 -50 0 -50 50 0 50 0 0 -100 0 -100
-50 0 -50 0 0 50 0 50 -50 0 -50 0 0 -50 0 -50 50 0 50 0 0 -50 0 -50 -50 0
-50 0 0 -100 0 -100 50 0 50 0 0 -50 0 -50 50 0 50 0 0 -50 0 -50 -100 0 -100
0 0 -100 0 -100 50 0 50 0 0 -50 0 -50 50 0 50 0 0 -50 0 -50 -100 0 -100 0 0
-250 0 -250 50 0 50 0 0 200 0 200 150 0 150 0 0 -50 0 -50 -50 0 -50 0 0 -50
0 -50 -50 0 -50 0 0 -50 0 -50 50 0 50 0 0 -50 0 -50 250 0 250 0 0 -100 0
-100 50 0 50 0 0 100 0 100 50 0 50 0 0 50 0 50 50 0 50 0 0 50 0 50 -50 0
-50 0 0 100 0 100 100 0 100 0 0 -50 0 -50 50 0 50 0 0 -50 0 -50 -50 0 -50 0
0 -100 0 -100 50 0 50 0 0 50 0 50 50 0 50 0 0 -50 0 -50 100 0 100 0 0 -50 0
-50 -50 0 -50 0 0 -50 0 -50 -50 0 -50 0 0 -50 0 -50 100 0 100 0 0 100 0 100
50 0 50 0 0 50 0 50 50 0 50 0 0 -50 0 -50 150 0 150 0 0 -50 0 -50 -100 0
-100 0 0 -150 0 -150 -100 0 -100 0 0 50 0 50 50 0 50 0 0 50 0 50 -50 0 -50
0 0 -50 0 -50 -50 0 -50 0 0 -50 0 -50 -50 0 -50 0 0 50 0 50 -150 0 -150 0 0
100 0 100 50 0 50 0 0 50 0 50 -100 0 -100 0 0 -100 0 -100 -50 0 -50 0 0 -50
0 -50 100 0 100 0 0 -50 0 -50 50 0 50 0 0 -50 0 -50 -50 0 -50 0 0 -100 0
-100 50 0 50 0 0 50 0 50 50 0 50 0 0 -50 0 -50 50 0 50 0 0 50 0 50 -50 0
-50 0 0 50 0 50 100 0 100 0 0 -50 0 -50 50 0 50 0 0 -50 0 -50 150 0 150 0 0
50 0 50 -150 0 -150 0 0 50 0 50 100 0 100 0 0 50 0 50 50 0 50 0 0 -50 0 -50
50 0 50 0 0 -50 0 -50 50 0 50 0 0 -50 0 -50 50 0 50 0 0 50 0 50 100 0 100 0
0 -50 0 -50 100 0 100 0 0 50 0 50 150 0 150 0 0 50 0 50 -50 0 -50 0 0 50 0
50 -100 0 -100 0 0 50 0 50 150 0 150 0 0 -50 0 -50 50 0 50 0 0 -50 0 -50 50
0 50 0 0 -50 0 -50 -50 0 -50 0 0 -50 0 -50 300 0 300 0 0 250 0 250 -50 0
-50 0 0 -50 0 -50 -50 0 -50 0 0 50 0 50 -100 0 -100 0 0 50 0 50 50 0 50 0 0
50 0 50 -50 0 -50 0 0 50 0 50 100 0 100 0 0 50 0 50 -100 0 -100 0 0 50 0 50
50 0 50 0 0 50 0 50 50 0 50 0 0 -50 0 -50 50 0 50 0 0 -50 0 -50 50 0 50 0 0
100 0 100 -50 0 -50 0 0 50 0 50 50 0 50 0 0 150 0 150 -50 0 -50 0 0 50 0 50
50 0 50 0 0 150 0 150 -50 0 -50 0 0 50 0 50 50 0 50 0 0 150 0 150 -50 0 -50
0 0 50 0 50 50 0 50 0 0 50 0 50 -50 0 -50 0 0 50 0 50 50 0 50 0 0 50 0 50
-50 0 -50 0 0 100 0 100 -50 0 -50 0 0 -50 0 -50 -50 0 -50 0 0 50 0 50 -50 0
-50 0 0 -100 0 -100 -50 0 -50 0 0 100 0 100 -50 0 -50 0 0 -150 0 -150 -100
0 -100 0 0 100 0 100 50 0 50 0 0 50 0 50 -50 0 -50 0 0 300 0 300 -50 0 -50
0 0 50 0 50 50 0 50 0 0 50 0 50 -50 0 -50 0 0 -50 0 -50 -50 0 -50 0 0 50 0
50 -50 0 -50 0 0 -50 0 -50 -50 0 -50 0 0 -50 0 -50 50 0 50 0 0 -50 0 -50
-150 0 -150 0 0 50 0 50 -100 0 -100 0 0 50 0 50 150 0 150 0 0 50 0 50 -350
0 -350 0 0 -50 0 -50 -50 0 -50 0 0 50 0 50 -200 0 -200 0 0 -50z m800 -100
l0 -50 50 0 50 0 0 -50 0 -50 50 0 50 0 0 -50 0 -50 50 0 50 0 0 -50 0 -50
100 0 100 0 0 -50 0 -50 50 0 50 0 0 -100 0 -100 -50 0 -50 0 0 -50 0 -50 150
0 150 0 0 50 0 50 50 0 50 0 0 -50 0 -50 -50 0 -50 0 0 -50 0 -50 -50 0 -50 0
0 -50 0 -50 100 0 100 0 0 -50 0 -50 -200 0 -200 0 0 -50 0 -50 -100 0 -100 0
0 -50 0 -50 50 0 50 0 0 -100 0 -100 50 0 50 0 0 100 0 100 50 0 50 0 0 50 0
50 100 0 100 0 0 -50 0 -50 -100 0 -100 0 0 -50 0 -50 200 0 200 0 0 -50 0
-50 -250 0 -250 0 0 -50 0 -50 -100 0 -100 0 0 -50 0 -50 100 0 100 0 0 -50 0
-50 50 0 50 0 0 -50 0 -50 -100 0 -100 0 0 50 0 50 -50 0 -50 0 0 -150 0 -150
100 0 100 0 0 50 0 50 150 0 150 0 0 100 0 100 50 0 50 0 0 100 0 100 100 0
100 0 0 50 0 50 50 0 50 0 0 -50 0 -50 100 0 100 0 0 -100 0 -100 100 0 100 0
0 -50 0 -50 -100 0 -100 0 0 -50 0 -50 50 0 50 0 0 -100 0 -100 50 0 50 0 0
-50 0 -50 -200 0 -200 0 0 -50 0 -50 50 0 50 0 0 -50 0 -50 -50 0 -50 0 0
-100 0 -100 -150 0 -150 0 0 100 0 100 -150 0 -150 0 0 -100 0 -100 -50 0 -50
0 0 -50 0 -50 100 0 100 0 0 100 0 100 50 0 50 0 0 -100 0 -100 -50 0 -50 0 0
-50 0 -50 50 0 50 0 0 -100 0 -100 -50 0 -50 0 0 50 0 50 -50 0 -50 0 0 -50 0
-50 -100 0 -100 0 0 -50 0 -50 100 0 100 0 0 -50 0 -50 50 0 50 0 0 -50 0 -50
-50 0 -50 0 0 -50 0 -50 -50 0 -50 0 0 50 0 50 -100 0 -100 0 0 -50 0 -50 -50
0 -50 0 0 50 0 50 -50 0 -50 0 0 50 0 50 150 0 150 0 0 50 0 50 -50 0 -50 0 0
50 0 50 -50 0 -50 0 0 -50 0 -50 -100 0 -100 0 0 50 0 50 100 0 100 0 0 100 0
100 100 0 100 0 0 50 0 50 -50 0 -50 0 0 100 0 100 -100 0 -100 0 0 50 0 50
-50 0 -50 0 0 -50 0 -50 -100 0 -100 0 0 -50 0 -50 200 0 200 0 0 -50 0 -50
-200 0 -200 0 0 50 0 50 -50 0 -50 0 0 50 0 50 -50 0 -50 0 0 50 0 50 -50 0
-50 0 0 50 0 50 -150 0 -150 0 0 100 0 100 50 0 50 0 0 50 0 50 -100 0 -100 0
0 100 0 100 -50 0 -50 0 0 -100 0 -100 -50 0 -50 0 0 -100 0 -100 -50 0 -50 0
0 -100 0 -100 50 0 50 0 0 -150 0 -150 -50 0 -50 0 0 150 0 150 -150 0 -150 0
0 50 0 50 -50 0 -50 0 0 50 0 50 100 0 100 0 0 50 0 50 -200 0 -200 0 0 100 0
100 50 0 50 0 0 100 0 100 -50 0 -50 0 0 50 0 50 -50 0 -50 0 0 50 0 50 50 0
50 0 0 50 0 50 50 0 50 0 0 50 0 50 50 0 50 0 0 -100 0 -100 50 0 50 0 0 100
0 100 100 0 100 0 0 50 0 50 100 0 100 0 0 -50 0 -50 100 0 100 0 0 -50 0 -50
-50 0 -50 0 0 -50 0 -50 -100 0 -100 0 0 -50 0 -50 50 0 50 0 0 -50 0 -50 50
0 50 0 0 50 0 50 50 0 50 0 0 50 0 50 50 0 50 0 0 -50 0 -50 50 0 50 0 0 -50
0 -50 -50 0 -50 0 0 -100 0 -100 50 0 50 0 0 50 0 50 50 0 50 0 0 50 0 50 50
0 50 0 0 -50 0 -50 100 0 100 0 0 -50 0 -50 -50 0 -50 0 0 -50 0 -50 -50 0
-50 0 0 -50 0 -50 -50 0 -50 0 0 -50 0 -50 150 0 150 0 0 100 0 100 50 0 50 0
0 -50 0 -50 50 0 50 0 0 50 0 50 50 0 50 0 0 -100 0 -100 100 0 100 0 0 -50 0
-50 -50 0 -50 0 0 -50 0 -50 150 0 150 0 0 50 0 50 -50 0 -50 0 0 50 0 50 100
0 100 0 0 50 0 50 -100 0 -100 0 0 50 0 50 -100 0 -100 0 0 50 0 50 -50 0 -50
0 0 50 0 50 100 0 100 0 0 100 0 100 -50 0 -50 0 0 50 0 50 -150 0 -150 0 0
50 0 50 -50 0 -50 0 0 50 0 50 100 0 100 0 0 50 0 50 -100 0 -100 0 0 50 0 50
-50 0 -50 0 0 100 0 100 100 0 100 0 0 50 0 50 100 0 100 0 0 -100 0 -100 100
0 100 0 0 -50 0 -50 50 0 50 0 0 100 0 100 -50 0 -50 0 0 100 0 100 -50 0 -50
0 0 50 0 50 50 0 50 0 0 -50 0 -50 50 0 50 0 0 50 0 50 50 0 50 0 0 50 0 50
-50 0 -50 0 0 50 0 50 -50 0 -50 0 0 -50 0 -50 -50 0 -50 0 0 50 0 50 -50 0
-50 0 0 -150 0 -150 -50 0 -50 0 0 50 0 50 -100 0 -100 0 0 100 0 100 50 0 50
0 0 50 0 50 -50 0 -50 0 0 50 0 50 -50 0 -50 0 0 100 0 100 100 0 100 0 0 50
0 50 100 0 100 0 0 -50z m700 0 l0 -50 -50 0 -50 0 0 50 0 50 50 0 50 0 0 -50z
m-1200 -100 l0 -50 -50 0 -50 0 0 50 0 50 50 0 50 0 0 -50z m1200 -100 l0 -50
50 0 50 0 0 -50 0 -50 -100 0 -100 0 0 100 0 100 50 0 50 0 0 -50z m-1700
-300 l0 -50 -50 0 -50 0 0 50 0 50 50 0 50 0 0 -50z m200 0 l0 -50 -50 0 -50
0 0 50 0 50 50 0 50 0 0 -50z m1600 0 l0 -50 -50 0 -50 0 0 50 0 50 50 0 50 0
0 -50z m-1700 -200 l0 -50 -50 0 -50 0 0 50 0 50 50 0 50 0 0 -50z m600 -100
l0 -50 -50 0 -50 0 0 50 0 50 50 0 50 0 0 -50z m1900 -100 l0 -50 -50 0 -50 0
0 -50 0 -50 50 0 50 0 0 -50 0 -50 -50 0 -50 0 0 50 0 50 -50 0 -50 0 0 50 0
50 50 0 50 0 0 50 0 50 50 0 50 0 0 -50z m-2100 -100 l0 -50 -50 0 -50 0 0 50
0 50 50 0 50 0 0 -50z m1800 0 l0 -50 -50 0 -50 0 0 -50 0 -50 100 0 100 0 0
-100 0 -100 100 0 100 0 0 -100 0 -100 -50 0 -50 0 0 50 0 50 -50 0 -50 0 0
50 0 50 -50 0 -50 0 0 50 0 50 -50 0 -50 0 0 -50 0 -50 -50 0 -50 0 0 50 0 50
-50 0 -50 0 0 50 0 50 50 0 50 0 0 50 0 50 50 0 50 0 0 50 0 50 50 0 50 0 0
-50z m-500 -600 l0 -50 -100 0 -100 0 0 50 0 50 100 0 100 0 0 -50z m-900
-300 l0 -50 -50 0 -50 0 0 50 0 50 50 0 50 0 0 -50z m-800 -300 l0 -50 -50 0
-50 0 0 50 0 50 50 0 50 0 0 -50z m-400 -400 l0 -50 -200 0 -200 0 0 50 0 50
200 0 200 0 0 -50z m800 0 l0 -50 -50 0 -50 0 0 50 0 50 50 0 50 0 0 -50z
m1700 -300 l0 -150 -150 0 -150 0 0 150 0 150 150 0 150 0 0 -150z m300 -350
l0 -100 50 0 50 0 0 -50 0 -50 -150 0 -150 0 0 50 0 50 -50 0 -50 0 0 50 0 50
50 0 50 0 0 50 0 50 100 0 100 0 0 -100z m-1800 -50 l0 -50 -50 0 -50 0 0 50
0 50 50 0 50 0 0 -50z"/>
<path d="M2200 3850 l0 -50 -50 0 -50 0 0 -50 0 -50 50 0 50 0 0 -50 0 -50
150 0 150 0 0 50 0 50 -50 0 -50 0 0 50 0 50 -50 0 -50 0 0 50 0 50 -50 0 -50
0 0 -50z m100 -100 l0 -50 -50 0 -50 0 0 50 0 50 50 0 50 0 0 -50z"/>
<path d="M2200 3450 l0 -50 50 0 50 0 0 50 0 50 -50 0 -50 0 0 -50z"/>
<path d="M2800 3450 l0 -50 50 0 50 0 0 50 0 50 -50 0 -50 0 0 -50z"/>
<path d="M2700 3150 l0 -50 100 0 100 0 0 -50 0 -50 -50 0 -50 0 0 -50 0 -50
50 0 50 0 0 50 0 50 50 0 50 0 0 50 0 50 -50 0 -50 0 0 50 0 50 -100 0 -100 0
0 -50z"/>
<path d="M2100 2850 l0 -50 50 0 50 0 0 50 0 50 -50 0 -50 0 0 -50z"/>
<path d="M2300 2750 l0 -50 50 0 50 0 0 -100 0 -100 100 0 100 0 0 -50 0 -50
50 0 50 0 0 100 0 100 -100 0 -100 0 0 50 0 50 50 0 50 0 0 50 0 50 -150 0
-150 0 0 -50z"/>
<path d="M1100 2550 l0 -50 -50 0 -50 0 0 -50 0 -50 -50 0 -50 0 0 -50 0 -50
-50 0 -50 0 0 50 0 50 -100 0 -100 0 0 -50 0 -50 50 0 50 0 0 -50 0 -50 100 0
100 0 0 50 0 50 50 0 50 0 0 -50 0 -50 100 0 100 0 0 50 0 50 -100 0 -100 0 0
50 0 50 100 0 100 0 0 100 0 100 -50 0 -50 0 0 -50z"/>
<path d="M3400 2150 l0 -50 -50 0 -50 0 0 -50 0 -50 -50 0 -50 0 0 -50 0 -50
-150 0 -150 0 0 -50 0 -50 50 0 50 0 0 -50 0 -50 -50 0 -50 0 0 -100 0 -100
-50 0 -50 0 0 -50 0 -50 50 0 50 0 0 50 0 50 50 0 50 0 0 100 0 100 50 0 50 0
0 50 0 50 50 0 50 0 0 -50 0 -50 50 0 50 0 0 -50 0 -50 100 0 100 0 0 -50 0
-50 -50 0 -50 0 0 -50 0 -50 50 0 50 0 0 50 0 50 50 0 50 0 0 50 0 50 -50 0
-50 0 0 50 0 50 50 0 50 0 0 150 0 150 50 0 50 0 0 -100 0 -100 50 0 50 0 0
100 0 100 -50 0 -50 0 0 100 0 100 -150 0 -150 0 0 -50z m200 -100 l0 -50 -50
0 -50 0 0 -50 0 -50 -50 0 -50 0 0 50 0 50 50 0 50 0 0 50 0 50 50 0 50 0 0
-50z"/>
<path d="M900 2000 l0 -100 50 0 50 0 0 -50 0 -50 50 0 50 0 0 -50 0 -50 -50
0 -50 0 0 -50 0 -50 50 0 50 0 0 50 0 50 50 0 50 0 0 100 0 100 50 0 50 0 0
50 0 50 -50 0 -50 0 0 -50 0 -50 -100 0 -100 0 0 50 0 50 50 0 50 0 0 50 0 50
-100 0 -100 0 0 -100z"/>
<path d="M1800 2050 l0 -50 50 0 50 0 0 50 0 50 -50 0 -50 0 0 -50z"/>
<path d="M700 1950 l0 -50 50 0 50 0 0 50 0 50 -50 0 -50 0 0 -50z"/>
<path d="M2100 1650 l0 -50 -50 0 -50 0 0 -50 0 -50 50 0 50 0 0 50 0 50 50 0
50 0 0 -50 0 -50 100 0 100 0 0 100 0 100 -50 0 -50 0 0 -50 0 -50 -50 0 -50
0 0 50 0 50 -50 0 -50 0 0 -50z"/>
<path d="M2900 650 l0 -50 50 0 50 0 0 50 0 50 -50 0 -50 0 0 -50z"/>
<path d="M3500 2750 l0 -50 50 0 50 0 0 50 0 50 -50 0 -50 0 0 -50z"/>
<path d="M3400 1050 l0 -50 50 0 50 0 0 50 0 50 -50 0 -50 0 0 -50z"/>
<path d="M3400 3750 l0 -350 350 0 350 0 0 350 0 350 -350 0 -350 0 0 -350z
m600 0 l0 -250 -250 0 -250 0 0 250 0 250 250 0 250 0 0 -250z"/>
<path d="M3600 3750 l0 -150 150 0 150 0 0 150 0 150 -150 0 -150 0 0 -150z"/>
<path d="M1200 3950 l0 -50 50 0 50 0 0 50 0 50 -50 0 -50 0 0 -50z"/>
<path d="M1800 3400 l0 -100 50 0 50 0 0 100 0 100 -50 0 -50 0 0 -100z"/>
<path d="M1800 2550 l0 -50 50 0 50 0 0 50 0 50 -50 0 -50 0 0 -50z"/>
<path d="M400 750 l0 -350 350 0 350 0 0 350 0 350 -350 0 -350 0 0 -350z
m600 0 l0 -250 -250 0 -250 0 0 250 0 250 250 0 250 0 0 -250z"/>
<path d="M600 750 l0 -150 150 0 150 0 0 150 0 150 -150 0 -150 0 0 -150z"/>
<path d="M3900 1050 l0 -50 100 0 100 0 0 50 0 50 -100 0 -100 0 0 -50z"/>
<path d="M1200 650 l0 -250 150 0 150 0 0 100 0 100 -100 0 -100 0 0 150 0
150 -50 0 -50 0 0 -250z"/>
</g>
</svg>
