<svg id="svg2" viewBox="0 0 200 200" height="200" width="200" version="1.1" xmlns:rdf="http://www.w3.org/1999/02/22-rdf-syntax-ns#" xmlns="http://www.w3.org/2000/svg" xmlns:cc="http://creativecommons.org/ns#">
 <g id="logo" transform="translate(0 -852.362)">
  <g id="text4136" fill="#ff3d5e" transform="matrix(1.07735 0 0 1.19529 -.0415218 -188.988)">
   <path id="path4145" fill="#ff3d5e" d="m20.9961 19.8552c-6.9783 6.7023-17.2452 16.6362-20.8849 20.1174l20.8849-0.0041 46.9902-0.03906c32.9104-0.02736 51.873 5.30196 51.873 32.9885 0 28.4701-18.9392 32.5957-51.8496 32.5957h-47.0137l0.0049-58.0269-20.889-0.0043-0.0143043 128.341h20.8965l0.0019-50.1965h47.7988c45.1866 0 71.1758-12.7473 71.1758-53.2324 0-38.9179-26.0127-52.6153-71.1992-52.5784z" transform="matrix(.928658 0 0 .928658 .0384967 852.816)"/>
  </g>
  <g id="text4140" fill="#00ca94" transform="matrix(.997836 0 0 1.10707 .517135 -112.359)">
   <path id="path4148" fill="#00ca94" d="m57.0881 47.286v16.7734l0.0039 111.566 20.2264 0.20424v-111.575h43.7637c34.1835 0 61.1816 25.4747 61.1816 59.6582 0 33.9657-26.5635 59.4414-60.5293 59.4414l-44.4198-0.003-56.3185 0.007-20.5566 16.5469h76.8105 43.6133c44.8523 0 79.0371-32.8769 79.0371-76.2051 0-43.3281-33.966-76.2051-78.3828-76.2051h-44.2051z" transform="matrix(1.00266 0 0 1.00266 -.518305 851.554)"/>
  </g>
 </g>
</svg>
