<?xml version="1.0" encoding="utf-8"?>
<!-- Svg Vector Icons : http://www.onlinewebfonts.com/icon -->
<!DOCTYPE svg PUBLIC "-//W3C//DTD SVG 1.1//EN" "http://www.w3.org/Graphics/SVG/1.1/DTD/svg11.dtd">
<svg version="1.1" xmlns="http://www.w3.org/2000/svg" xmlns:xlink="http://www.w3.org/1999/xlink" x="0px" y="0px" viewBox="0 0 1000 1000" enable-background="new 0 0 1000 1000" xml:space="preserve">
<metadata> Svg Vector Icons : http://www.onlinewebfonts.com/icon </metadata>
<g><g transform="translate(0.000000,511.000000) scale(0.100000,-0.100000)"><path d="M4686.7,4980.6c-370.8-84.4-714.5-313.5-916.4-605.9c-66.3-99.5-452.2-892.3-452.2-934.5c0-3,126.6-102.5,280.4-220.1l283.4-211l51.2-400.9c27.1-223.1,60.3-449.2,69.3-503.4c15.1-90.4,54.3-15.1,391.9,723.5c370.8,813.9,458.2,958.6,584.8,958.6c66.3,0,1498.2-642.1,1986.6-892.3C8135.4,2300.6,8313.2,1429.4,7454.1,522c-208-220.1-4319.9-3753.2-4564.1-3922c-235.1-159.8-452.2-183.9-678.3-69.4c-186.9,96.5-331.6,256.2-358.7,397.9c-30.1,159.8,6,313.5,138.7,618c66.3,150.7,120.6,286.4,120.6,298.5c0,15.1-247.2,135.7-545.6,274.3c-428.1,192.9-554.7,238.2-572.8,205c-15.1-21.1-81.4-162.8-147.7-316.5C544.6-2673.5,529.6-3201,791.8-3746.6c129.6-268.3,503.4-642.1,792.8-792.9c714.5-370.8,1392.8-328.6,2016.8,117.6c214,153.7,4633.4,3897.9,4865.5,4121c404,388.9,747.6,943.6,871.2,1404.8c75.4,274.3,72.4,853.1-3,1100.3c-180.9,587.8-605.9,1112.4-1208.8,1489.2c-247.2,156.8-2363.5,1142.5-2683,1251.1C5232.3,5013.8,4906.8,5031.8,4686.7,4980.6z"/><path d="M2269,1140C1750.5,0.5,1328.4-940.1,1328.4-949.1c0-36.2,1091.3-515.5,1115.4-491.4c12.1,15.1,331.6,702.4,705.4,1528.4l681.3,1501.3l-81.4,648.1l-81.4,648.1l-195.9,144.7c-108.5,78.4-214,153.7-229.1,162.8C3224.6,3202,2817.6,2345.8,2269,1140z M2308.2-448.7c211-208-90.4-512.5-307.5-310.5c-99.5,90.4-93.4,241.2,9.1,322.6C2115.2-352.2,2217.7-358.2,2308.2-448.7z"/><path d="M1162.6-1298.8c-24.1-60.3-39.2-114.6-33.2-123.6c24.1-21.1,1052.1-488.4,1079.2-488.4c30.1,0,120.6,177.9,108.5,214c-9,27.1-1037,509.5-1085.3,509.5C1219.9-1187.3,1186.7-1235.5,1162.6-1298.8z"/></g></g>
</svg>