<svg xmlns="http://www.w3.org/2000/svg" width="398" height="109" viewBox="0 0 398 109">
  <defs>
    <radialGradient id="logo-a" cx="50%" cy="70.994%" r="111.263%" fx="50%" fy="70.994%" gradientTransform="matrix(-.06096 .97491 -.1961 -.16348 .67 .339)">
      <stop offset="0%" stop-color="#E4005F"/>
      <stop offset="25.945%" stop-color="#E3005C"/>
      <stop offset="100%" stop-color="#070068"/>
    </radialGradient>
  </defs>
  <path fill="url(#logo-a)" fill-rule="evenodd" d="M45.6472356,4.22764349 C59.5417517,4.22764349 72.673029,6.74164483 84.6951553,11.7004651 L76.1868285,32.5087638 L72.7500224,31.7321349 C64.1077941,29.3531509 39.4397836,23.2159972 35.3022261,29.3754679 L35.019917,29.4435345 L35.2017999,29.5093694 L35.1855655,29.5335588 C35.0222358,29.7815006 33.6960163,31.9041443 34.3972749,34.4492202 C34.4195918,34.545183 34.4508355,34.6389141 34.4776158,34.733761 C34.5166704,34.8509249 34.5668835,34.9680887 34.613749,35.0852525 C34.9752832,36.0605021 35.6191264,36.9598741 36.586565,37.7710942 L36.615577,37.8001062 L36.615577,37.8001062 L36.6166928,37.8001062 C38.2636817,39.1681336 40.7620612,40.3051808 44.1330324,41.1922785 C58.9481216,44.2173373 70.3052035,48.6628683 77.8929573,54.3972016 C85.3479253,60.0355722 89.1272962,66.9460073 89.1272962,74.9388132 C89.1272962,80.9130534 88.0806325,86.1541827 86.0140855,90.5171411 C83.957581,94.8633618 80.9615341,98.5088311 77.111865,101.353123 C73.2376472,104.214152 68.4082651,106.388937 62.7576203,107.816104 C57.0656891,109.252198 50.5245991,109.980845 43.3184647,109.980845 C27.65868,109.980845 13.6972132,107.520405 1.8078726,102.665358 C5.00588763,95.5886618 7.57010205,89.0140963 9.43579679,83.113502 C9.65896602,82.423909 9.88436694,81.8001511 10.1075362,81.2533864 L21.8596277,83.8008632 L26.6778513,84.7526799 C28.4074128,85.0963605 30.1380902,85.4032182 31.8698834,85.6721371 C33.598329,85.9421719 35.2419704,86.1742679 36.8019233,86.369541 C38.3741505,86.5670458 39.7823483,86.6685877 40.9896938,86.6685877 C42.8877481,86.6685877 44.7411686,86.6072162 46.4986262,86.4844731 C48.3107603,86.3583825 49.9387799,86.0615675 51.3380509,85.5996072 C52.8031569,85.1164458 54.006039,84.3978409 54.9065269,83.468341 C55.8784288,82.4685429 56.3716328,81.1228325 56.3716328,79.4680326 C56.3716328,77.4405402 55.3071156,75.7299481 53.2059773,74.3853535 C51.3235449,73.1835872 48.9490243,72.0934055 46.1471347,71.1482838 C43.3842997,70.2154365 40.3201862,69.3584666 37.0395985,68.6008071 C33.8192666,67.8587694 30.7640798,67.0397384 27.927599,66.1604516 C24.0779298,65.1137879 20.4525457,63.6643038 17.1541045,61.8566331 C13.8690535,60.0590049 10.9924022,57.8909159 8.60225973,55.4115058 C6.22550746,52.9454858 4.34195918,50.1112366 3.00517551,46.9879833 C1.67397107,43.8758884 1,40.3944485 1,36.6396262 C1,14.8292976 15.6041942,4.22764349 45.6472356,4.22764349 Z M344.195217,1.00019614 C376.447634,1.07738667 399.079225,23.5114732 399.000207,55.3253624 C398.920775,87.0600266 376.082752,109.631362 344.069126,109.612405 C312.12022,109.593423 289.268807,86.9015764 289.2755,55.2015035 C289.282197,23.4054679 312.062196,0.923399906 344.195217,1.00019614 Z M259.668756,3.39834664 L290.721638,108.032355 L262.517511,108.032355 L254.165403,76.627981 L253.441219,73.9532979 C248.751318,75.3748858 243.540316,77.0185272 238.948609,78.4869807 C235.973764,79.4399133 232.987759,80.6070884 230.313076,82.1927057 C226.298262,84.5728055 224.086655,88.5128582 222.691847,92.8724691 C221.115156,97.8022773 219.509454,103.081345 217.986324,108.032355 L217.986324,108.032355 L190.14931,108.032355 L189.159555,108.021196 L171.800336,108.021196 C171.799221,108.024544 171.798105,108.029007 171.796989,108.032355 L171.796989,108.032355 L162.698379,108.032355 C162.693916,108.018965 162.689453,108.00669 162.686105,107.9933 L162.686105,107.9933 L162.65263,107.9933 L162.65263,107.883947 C161.120573,102.903926 159.607486,97.9183253 158.019637,92.9550417 C157.508579,91.3582659 156.885937,89.8183982 156.107076,88.3901152 L156.107076,88.3901152 L177.96985,71.4638451 C179.382511,73.4098808 180.392352,75.6672375 181.15559,78.0518007 C182.917511,83.5607331 184.586817,89.0997933 186.295178,94.6254634 C187.551621,98.6904909 188.955355,103.339106 190.306645,107.71657 L190.306645,107.71657 C190.548783,106.944405 190.867915,106.027179 191.102243,105.270636 L191.102243,105.270636 L191.855439,102.854829 C192.723567,100.022811 193.57161,97.2778296 194.416306,94.5428908 C196.124666,89.0172207 197.792856,83.4781605 199.555893,77.9703439 C200.449686,75.1751494 201.68158,72.5562585 203.504873,70.4071388 L203.504873,70.4071388 L219.777257,84.8919375 C220.290546,85.2992214 220.991298,84.7011278 220.667702,84.1309305 L220.667702,84.1309305 L208.905568,66.3454589 C211.11048,65.2262652 213.463799,64.33582 215.812656,63.5837397 C219.963789,62.2564407 226.285862,60.329359 232.742683,58.3784867 L234.234184,57.9281252 L234.234184,57.9281252 L235.724908,57.4784922 C240.190354,56.1322587 244.570242,54.8170945 248.188931,53.7241232 L248.188931,53.7241232 L248.166614,53.6225812 L239.893731,22.9390442 L237.289346,33.1813959 C237.291578,33.1813959 237.29381,33.1825117 237.294925,33.1836276 L237.294925,33.1836276 L232.490092,52.1251157 L232.490092,52.1251157 L229.820988,51.3016213 C225.137782,49.8432104 215.321683,46.7188412 208.858702,44.2126508 L208.858702,44.2126508 L238.314809,13.5157236 C238.722093,13.0024343 238.123999,12.301683 237.552686,12.6252783 L237.552686,12.6252783 L211.350387,31.7575762 L219.567478,3.39834664 L259.668756,3.39834664 Z M171.789178,3.09394381 C171.793641,3.10733396 171.796989,3.11849243 171.800336,3.13188258 L189.160671,3.13188258 C189.160671,3.13188258 189.161786,3.14750443 189.162902,3.15977873 L189.205304,3.15977873 C189.20642,3.14750443 189.207536,3.13188258 189.207536,3.13188258 L190.315571,3.13188258 L190.315571,3.5168495 C188.908489,8.06838589 187.601834,12.2974427 186.295178,16.5276154 C184.586817,22.0532855 182.917511,27.5923457 181.15559,33.1012781 C180.954738,33.7272678 180.736032,34.3432149 180.499473,34.9491193 L164.068639,21.4920149 C163.531917,21.1159748 162.867988,21.7542388 163.225059,22.3054667 L176.792632,41.1364861 C175.862016,42.1463269 174.786341,43.0401197 173.534361,43.7821573 C170.859678,45.3677747 167.873674,46.5349498 164.898828,47.4867665 C156.294539,50.2384431 147.624414,52.8015417 138.503488,55.576651 C147.624414,58.3517603 156.294539,60.9137431 164.898828,63.6665355 C167.391628,64.4643655 169.888892,65.4161822 172.20762,66.6358021 L154.57502,86.0202811 C153.451363,84.5540593 152.085567,83.2752996 150.398408,82.2755015 C147.723724,80.6898841 144.736604,79.5227091 141.761758,78.5697765 C135.957127,76.7130085 130.110093,74.9410449 124.128042,73.1333741 L124.128042,108.032578 L97.1814736,108.032578 L97.1814736,3.35951519 L124.128042,3.35951519 L124.128042,34.6567676 L124.138085,34.6567676 L124.138085,38.0165803 C130.116788,36.2111413 135.960474,34.4391776 141.761758,32.5835255 C144.736604,31.6305929 147.723724,30.4634178 150.398408,28.8778005 C154.413222,26.4977007 156.624829,22.557648 158.019637,18.1980371 C159.607486,13.2347535 161.120573,8.24803712 162.65263,3.26801581 L162.65263,3.15977873 L162.686105,3.15977873 C162.6928,3.13857766 162.699495,3.11626073 162.70619,3.09394381 L171.789178,3.09394381 Z M167.752047,96.5257134 C166.600493,96.5313286 165.670994,97.4697552 165.677653,98.6224242 C165.683268,99.7750933 166.62281,100.703477 167.775479,100.697923 C168.927033,100.691203 169.856532,99.7516605 169.849873,98.6001073 C169.843142,97.4485541 168.904716,96.5190543 167.752047,96.5257134 Z M174.431502,92.8490003 C173.278833,92.8534997 172.350449,93.7930422 172.357108,94.9445954 C172.362723,96.0983803 173.302265,97.0267643 174.453819,97.0201052 C175.606488,97.01449 176.534872,96.0749475 176.529317,94.9233943 C176.522597,93.7707252 175.584171,92.8423413 174.431502,92.8490003 Z M344.630397,24.8683422 C327.092643,24.6150451 316.127223,36.4206972 316.226534,55.4492214 C316.323612,74.039218 327.097107,85.8616078 343.984322,85.9063739 C360.815745,85.9519914 371.786744,74.1229065 372.062358,55.6344518 C372.336857,37.2430758 361.522076,25.1115966 344.630397,24.8683422 Z M149.55148,73.8184786 C148.399927,73.8251987 147.470427,74.7636253 147.477086,75.9162944 C147.482702,77.0678476 148.422244,77.9973474 149.573797,77.9906883 C150.726466,77.9839573 151.65485,77.0455307 151.649296,75.8928616 C151.642576,74.7413084 150.704149,73.8129244 149.55148,73.8184786 Z M163.824268,65.7944291 C162.672715,65.8011491 161.743215,66.7406916 161.749874,67.8922448 C161.75549,69.043798 162.695032,69.9732979 163.846585,69.9677436 C164.999254,69.9621394 165.927638,69.0225969 165.922084,67.8699279 C165.915364,66.7172588 164.976937,65.7888748 163.824268,65.7944291 Z M134.756476,59.6003761 C133.603807,59.6070872 132.675423,60.5466297 132.682082,61.6981829 C132.687698,62.850852 133.62724,63.7803518 134.778793,63.7736927 C135.931462,63.7669616 136.859846,62.828535 136.854292,61.675866 C136.847572,60.5243128 135.90803,59.5959288 134.756476,59.6003761 Z M300.094746,40.3227752 C298.943193,40.3295062 298.014809,41.2679328 298.020363,42.4206019 C298.025967,43.5721551 298.96551,44.5005391 300.117063,44.4960917 C301.270848,44.4893806 302.199232,43.5498382 302.192573,42.398285 C302.185842,41.2456159 301.247415,40.3161161 300.094746,40.3227752 Z M132.658686,38.7418444 C131.507132,38.7485754 130.577633,39.6881179 130.583187,40.8396711 C130.589907,41.9912243 131.529449,42.9207241 132.681003,42.914065 C133.832556,42.9084498 134.762056,41.9689074 134.756501,40.8162383 C134.749781,39.6646851 133.810239,38.7351853 132.658686,38.7418444 Z M224.87221,33.5317465 C223.720657,33.5373508 222.792273,34.4768932 222.796721,35.6284464 C222.803432,36.7811155 223.742974,37.7106153 224.894527,37.7039562 C226.047196,37.698341 226.976696,36.7587986 226.970037,35.6072454 C226.963306,34.4545763 226.024879,33.5261923 224.87221,33.5317465 Z M302.262835,25.7185919 C301.111282,25.7241961 300.181782,26.6637386 300.188441,27.8152918 C300.195172,28.9690767 301.133599,29.8974607 302.286268,29.8908016 C303.437821,29.8851864 304.366205,28.9456439 304.360651,27.7940907 C304.353931,26.6414217 303.414388,25.7130377 302.262835,25.7185919 Z M181.57738,13.4266431 C180.424711,13.4322583 179.495211,14.3718007 179.501871,15.5244698 C179.508602,16.676023 180.447028,17.6055228 181.599697,17.5988637 C182.75125,17.5921327 183.68075,16.6525902 183.674091,15.501037 C183.668476,14.3494838 182.728933,13.419984 181.57738,13.4266431 Z" transform="translate(-1 -1)"/>
</svg>
